<svg width="96" height="64" viewBox="0 0 96 64" fill="none" xmlns="http://www.w3.org/2000/svg">
<rect x="13" y="5" width="78" height="46" rx="3" stroke="#24247F" stroke-width="2"/>
<path d="M60.8453 26C61.5598 27.2376 61.5598 28.7624 60.8453 30L58.1547 34.6603C57.4402 35.8979 56.1197 36.6603 54.6906 36.6603L49.3094 36.6603C47.8803 36.6603 46.5598 35.8979 45.8453 34.6603L43.1547 30C42.4402 28.7624 42.4402 27.2376 43.1547 26L45.8453 21.3397C46.5598 20.1021 47.8803 19.3397 49.3094 19.3397L54.6906 19.3397C56.1197 19.3397 57.4402 20.1021 58.1547 21.3397L60.8453 26Z" fill="#CFCFF2"/>
<rect x="4" y="20" width="24" height="40" rx="4" fill="#24247F"/>
<path d="M20.4226 39C20.7799 39.6188 20.7799 40.3812 20.4226 41L19.0773 43.3301C18.7201 43.9489 18.0598 44.3301 17.3453 44.3301L14.6547 44.3301C13.9402 44.3301 13.2799 43.9489 12.9226 43.3301L11.5773 41C11.2201 40.3812 11.2201 39.6188 11.5774 39L12.9226 36.6699C13.2799 36.0511 13.9402 35.6699 14.6547 35.6699L17.3453 35.6699C18.0598 35.6699 18.7201 36.0511 19.0774 36.6699L20.4226 39Z" fill="#CFCFF2"/>
</svg>
